<?xml version="1.0" standalone="no"?>
<!DOCTYPE svg PUBLIC "-//W3C//DTD SVG 20010904//EN"
 "http://www.w3.org/TR/2001/REC-SVG-20010904/DTD/svg10.dtd">
<svg version="1.0" xmlns="http://www.w3.org/2000/svg"
 width="3489.000000pt" height="3489.000000pt" viewBox="0 0 3489.000000 3489.000000"
 preserveAspectRatio="xMidYMid meet">
<metadata>
Created by potrace 1.11, written by Peter Selinger 2001-2013
</metadata>
<g transform="translate(0.000000,3489.000000) scale(0.100000,-0.100000)"
fill="#000000" stroke="none">
<path d="M12979 34870 c-196 -104 -317 -537 -358 -1285 -33 -587 -16 -1386 44
-2195 8 -107 17 -233 20 -280 l6 -85 -127 -180 c-1202 -1706 -2658 -3135
-4009 -3937 -483 -287 -1081 -556 -1374 -619 -234 -50 -570 -183 -726 -288
-233 -155 -345 -330 -345 -535 1 -258 143 -490 519 -843 561 -527 1032 -867
1606 -1158 961 -487 2198 -796 3985 -995 157 -18 289 -36 294 -40 15 -14 19
-269 7 -380 -70 -605 -425 -1244 -1031 -1849 -399 -399 -864 -769 -2185 -1741
-1323 -973 -1974 -1481 -2603 -2033 -1398 -1225 -2214 -2312 -2510 -3344 -91
-315 -125 -558 -125 -883 -1 -565 120 -964 407 -1347 88 -118 269 -305 386
-400 562 -453 1408 -751 2400 -847 510 -50 1181 -50 1790 -1 2519 204 5263
1213 7442 2736 10 6 22 109 77 669 205 2061 257 3445 176 4675 -131 1972 -619
3364 -1485 4236 -409 411 -871 693 -1442 878 -307 99 -518 139 -1768 331
-1112 171 -1570 250 -1958 336 -1041 232 -1817 520 -2208 820 -72 55 -244 227
-244 244 0 11 56 17 275 30 1567 94 1961 110 2770 110 558 0 875 -9 1270 -35
2006 -134 3446 -603 4460 -1454 130 -108 371 -348 477 -473 51 -60 95 -108 99
-108 20 0 89 287 116 480 22 157 25 739 5 920 -14 127 -40 312 -49 349 -5 21
-4 22 16 11 63 -33 296 -234 447 -385 413 -412 773 -926 1069 -1530 365 -742
583 -1488 671 -2295 19 -169 26 -744 11 -937 -5 -73 -4 -103 4 -103 20 0 252
243 330 345 247 325 463 726 619 1149 l48 129 11 -69 c35 -221 70 -572 93
-929 16 -256 16 -1194 0 -1495 -58 -1063 -173 -2083 -373 -3303 -33 -202 -59
-373 -57 -379 5 -14 228 296 420 583 1627 2426 2324 5002 2058 7599 -364 3535
-2542 6917 -6071 9427 -206 146 -573 394 -776 523 -147 93 -168 110 -216 174
-256 340 -682 829 -1022 1175 -472 479 -799 729 -1071 820 -114 38 -235 43
-295 11z"/>
<path d="M25050 13640 c-1084 -49 -2258 -286 -3492 -706 -1136 -387 -2312
-929 -3298 -1520 -239 -143 -352 -216 -757 -490 -1403 -947 -3287 -1904 -4943
-2512 -1419 -520 -2629 -803 -3875 -904 -216 -17 -998 -17 -1205 0 -1164 99
-2097 430 -2885 1022 -550 413 -1040 986 -1395 1630 -35 63 -74 133 -88 155
l-24 40 6 -275 c12 -594 96 -1389 222 -2085 436 -2419 1368 -4375 2705 -5680
1196 -1167 2684 -1826 4494 -1989 422 -39 1172 -46 1580 -16 1005 73 1910 230
2950 511 915 246 1720 523 2840 974 2549 1027 4581 1677 6295 2014 1129 221
2089 291 2850 205 742 -83 1312 -316 1685 -689 458 -458 635 -1134 514 -1970
-63 -436 -189 -862 -396 -1342 -17 -40 43 13 261 230 134 133 297 303 362 377
1088 1233 1821 2635 2149 4115 175 788 226 1626 149 2455 -97 1056 -430 2184
-955 3232 -508 1015 -1198 1808 -2034 2338 -802 509 -1715 791 -2810 870 -203
14 -690 20 -905 10z"/>
</g>
</svg>
